<?xml version="1.0" standalone="no"?>
<!DOCTYPE svg PUBLIC "-//W3C//DTD SVG 20010904//EN"
 "http://www.w3.org/TR/2001/REC-SVG-20010904/DTD/svg10.dtd">
<svg version="1.0" xmlns="http://www.w3.org/2000/svg"
 width="512.000000pt" height="512.000000pt" viewBox="0 0 512.000000 512.000000"
 preserveAspectRatio="xMidYMid meet">
<metadata>
Created by potrace 1.14, written by Peter Selinger 2001-2017
</metadata>
<g transform="translate(0.000000,512.000000) scale(0.100000,-0.100000)"
fill="#000000" stroke="none">
<path d="M4388 5115 c-1 -1 -28 -6 -58 -9 -162 -19 -414 -85 -625 -164 -102
-38 -281 -116 -320 -140 -59 -36 -244 -328 -340 -535 -22 -47 -43 -86 -46 -87
-18 -1 28 208 76 346 l43 123 -87 -46 c-210 -112 -370 -205 -399 -234 -73 -71
-136 -204 -182 -384 -16 -60 -30 -105 -31 -100 -10 64 9 180 51 312 17 50 30
95 30 98 0 22 -248 -152 -395 -278 -134 -116 -348 -339 -456 -477 -48 -62
-115 -223 -134 -320 -3 -14 -7 -36 -10 -50 -14 -64 -21 -273 -11 -340 16 -113
17 -140 8 -140 -5 0 -19 21 -30 48 -29 67 -40 147 -42 307 l-1 90 -127 -130
c-186 -190 -346 -392 -419 -525 -56 -104 -124 -329 -149 -497 -3 -21 -9 -54
-14 -73 -5 -19 -11 -51 -14 -70 -23 -146 -45 -273 -50 -277 -18 -19 -19 205
-1 307 l6 35 -19 -41 c-45 -94 -77 -315 -60 -415 5 -24 6 -48 4 -54 -4 -13
-31 51 -39 95 -4 19 -9 45 -12 58 -4 22 -18 171 -18 200 0 6 -3 12 -7 12 -13
0 -68 -269 -87 -427 -12 -97 -7 -314 8 -358 13 -36 18 -40 50 -43 l37 -3 51
96 c43 80 104 186 184 320 173 286 461 718 668 998 25 34 72 98 104 142 56 76
298 383 344 435 247 281 337 367 566 546 233 182 566 414 835 581 174 108 168
105 492 282 142 78 289 162 329 188 39 27 78 53 87 58 19 12 25 17 135 99 48
37 97 75 110 85 12 11 66 57 121 103 54 45 120 101 146 123 54 44 77 78 32 47
-15 -10 -88 -59 -162 -107 -74 -48 -148 -97 -163 -108 l-28 -19 34 53 c19 30
58 89 86 131 28 43 51 79 51 82 0 2 -75 -71 -166 -163 -99 -98 -158 -152 -146
-131 11 19 59 103 107 185 48 83 89 152 91 155 3 6 -32 11 -38 5z"/>
<path d="M4739 4854 c-30 -27 -56 -51 -59 -55 -16 -18 -229 -195 -305 -254
-49 -38 -94 -73 -100 -78 -284 -222 -687 -510 -930 -662 -118 -75 -439 -296
-455 -315 -3 -3 -36 -30 -75 -60 -103 -81 -98 -77 -224 -185 -327 -280 -701
-670 -974 -1015 -62 -78 -161 -208 -202 -263 -28 -38 -59 -81 -71 -95 -71 -91
-494 -746 -494 -766 0 -2 -23 -42 -50 -90 -28 -48 -50 -89 -50 -91 0 -3 34 -5
76 -5 58 0 82 4 102 19 37 25 133 62 277 106 349 106 506 174 675 290 97 67
172 126 167 131 -2 2 -42 -14 -88 -37 -232 -114 -331 -140 -534 -144 -151 -3
-173 -5 -299 -31 -38 -8 -71 -12 -73 -10 -22 21 81 55 275 90 194 36 190 35
267 57 210 62 570 239 905 446 66 41 140 90 150 99 3 3 -32 -8 -77 -24 -171
-63 -232 -71 -516 -71 -142 1 -257 2 -255 4 2 2 30 6 63 10 33 3 67 8 75 10 8
2 44 7 80 10 36 4 76 8 90 10 14 2 45 7 70 10 107 14 267 61 488 141 279 101
286 104 377 162 125 79 297 278 350 405 l14 34 -67 -13 c-119 -22 -367 -41
-492 -38 -104 3 -172 12 -263 33 -61 15 -110 18 -235 16 -86 -1 -184 -5 -217
-9 -52 -5 -44 -2 55 25 111 29 123 30 365 33 236 3 272 6 460 41 116 22 373
100 533 162 121 46 267 121 367 188 94 63 208 163 199 176 -3 5 -9 7 -13 5 -3
-3 -34 -8 -66 -11 -33 -4 -67 -9 -75 -10 -9 -2 -43 -6 -75 -9 -49 -4 -53 -4
-24 4 80 20 395 157 385 167 -2 2 -34 -3 -72 -12 -72 -16 -286 -46 -292 -41
-1 2 36 13 83 25 103 26 284 92 340 125 22 13 70 55 106 93 101 105 170 216
222 355 26 69 26 93 -1 79 -9 -4 -45 -16 -80 -25 -67 -19 -73 -20 -142 -31
-25 -4 -54 -10 -65 -12 -36 -9 -329 -11 -355 -3 -22 7 -20 8 15 10 22 1 47 3
55 4 8 2 42 6 75 10 98 11 255 45 335 73 145 50 310 145 310 179 0 8 4 14 8
14 9 0 32 58 32 79 0 8 -6 11 -17 6 -60 -23 -284 -73 -403 -89 -25 -4 -58 -9
-75 -11 -16 -2 -7 2 20 10 160 47 309 102 411 151 l115 55 -2 85 c-1 58 -5 84
-13 80 -6 -2 -42 -18 -81 -34 -81 -35 -256 -93 -250 -82 3 5 38 28 77 53 40
25 116 74 168 109 l95 63 -2 41 c-1 42 -17 80 -51 123 l-19 24 -54 -49z"/>
<path d="M4544 4758 l-19 -23 23 19 c12 11 22 21 22 23 0 8 -8 2 -26 -19z"/>
<path d="M4500 4726 c-12 -11 -725 -444 -825 -500 -42 -24 -133 -79 -219 -131
-49 -30 -90 -55 -91 -55 -10 0 -465 -308 -520 -352 -5 -4 -53 -40 -105 -80
-93 -69 -285 -222 -365 -289 -70 -58 -329 -320 -425 -429 -51 -58 -107 -121
-124 -140 -18 -19 -77 -91 -131 -160 -54 -69 -102 -127 -105 -130 -3 -3 -58
-75 -121 -160 -263 -353 -513 -732 -756 -1145 -112 -190 -223 -384 -223 -391
0 -4 52 -27 87 -38 19 -6 25 2 53 75 58 152 359 653 593 989 67 96 251 347
294 400 152 191 313 383 398 476 151 166 418 436 530 536 28 25 82 73 120 108
39 35 101 88 140 119 38 31 77 63 85 71 71 66 404 308 580 421 256 165 657
434 757 507 204 150 408 311 393 312 -3 0 -12 -6 -20 -14z"/>
<path d="M4660 1305 c-85 -13 -168 -25 -184 -29 -16 -3 -50 -9 -75 -13 -25 -4
-48 -8 -51 -8 -3 -1 -25 -5 -50 -9 -155 -27 -551 -133 -745 -200 -276 -94
-422 -155 -851 -352 -160 -73 -313 -142 -341 -153 -28 -11 -70 -29 -94 -40
-64 -28 -357 -133 -476 -170 -111 -34 -334 -92 -423 -110 -173 -35 -289 -55
-385 -66 -27 -3 -81 -10 -120 -15 -73 -10 -137 -15 -320 -26 -117 -6 -155 -20
-155 -54 0 -21 39 -36 85 -33 11 0 80 4 153 8 73 3 141 8 150 10 9 1 49 6 87
9 129 12 233 27 430 60 11 2 65 13 120 25 334 70 645 168 965 303 98 41 111
47 270 121 77 36 277 125 475 212 272 120 798 297 1005 340 8 2 42 10 75 18
89 23 326 68 430 81 210 28 249 36 264 50 14 15 14 18 -6 37 -29 29 -55 30
-233 4z"/>
<path d="M385 681 c-9 -22 -15 -43 -12 -49 9 -13 197 -86 204 -78 3 3 14 23
24 45 l17 39 -101 41 c-56 23 -105 41 -108 41 -3 0 -14 -18 -24 -39z"/>
<path d="M336 541 c-9 -10 -16 -20 -16 -24 0 -3 -23 -43 -50 -88 -28 -46 -48
-89 -46 -95 28 -73 31 -237 6 -285 -20 -37 -6 -29 35 21 40 48 141 123 182
135 22 6 36 39 50 115 2 14 13 56 23 94 11 38 19 71 17 72 -4 4 -133 56 -159
64 -20 6 -30 4 -42 -9z m50 -209 c22 -15 24 -42 4 -62 -25 -25 -35 -25 -60 0
-28 28 -10 70 30 70 8 0 20 -4 26 -8z"/>
</g>
</svg>
